<?xml version="1.0" standalone="no"?>
<!DOCTYPE svg PUBLIC "-//W3C//DTD SVG 20010904//EN"
 "http://www.w3.org/TR/2001/REC-SVG-20010904/DTD/svg10.dtd">
<svg version="1.0" xmlns="http://www.w3.org/2000/svg"
 width="500.000000pt" height="500.000000pt" viewBox="0 0 500.000000 500.000000"
 preserveAspectRatio="xMidYMid meet">

<g transform="translate(0.000000,500.000000) scale(0.100000,-0.100000)"
fill="#000000" stroke="none">
<path d="M2594 3698 l-19 -23 25 20 c14 11 27 21 29 22 2 2 0 3 -6 3 -5 0 -18
-10 -29 -22z"/>
<path d="M2680 3713 c8 -3 26 -15 40 -27 l25 -21 -24 28 c-14 15 -32 27 -40
26 -14 0 -14 -1 -1 -6z"/>
<path d="M2661 3647 c-1 -10 -5 -15 -11 -12 -6 4 -10 -8 -10 -29 0 -34 -2 -36
-33 -36 -26 0 -33 -4 -33 -20 0 -16 7 -20 31 -20 l30 0 -1 -232 0 -233 3 213
c3 185 9 234 26 205 2 -5 2 -2 1 5 -2 7 1 23 6 37 8 20 16 25 45 25 24 0 35 5
35 15 0 8 -4 15 -10 15 -5 0 -13 17 -16 39 -5 32 -10 38 -25 34 -10 -3 -19
-13 -20 -22 -1 -9 -4 -5 -9 9 -6 18 -8 20 -9 7z"/>
<path d="M2985 3635 c-22 -22 -25 -32 -25 -105 l0 -80 110 0 110 0 0 73 c0 50
-5 79 -15 93 -14 18 -14 17 -5 -9 12 -35 13 -70 1 -63 -5 4 -11 1 -13 -4 -6
-18 -66 0 -71 21 -7 27 -27 23 -27 -5 0 -13 -3 -31 -6 -39 -4 -11 2 -16 22
-19 33 -4 45 -28 14 -28 -28 0 -70 29 -70 49 -1 13 -3 13 -15 -3 -14 -18 -15
-15 -15 36 0 41 5 62 21 82 26 33 16 34 -16 1z"/>
<path d="M2063 3622 c-30 -3 -33 -7 -33 -35 -1 -18 -2 -63 -2 -102 l-2 -70
105 0 104 0 -1 99 c-1 71 -5 101 -15 107 -13 8 -77 9 -156 1z m97 -16 c0 -3
-4 -17 -10 -31 -11 -28 -30 -25 -30 5 0 10 -6 21 -12 23 -7 3 2 6 20 6 17 1
32 -1 32 -3z m-50 -40 c0 -3 -4 -8 -10 -11 -5 -3 -10 -1 -10 4 0 6 5 11 10 11
6 0 10 -2 10 -4z m17 -62 c17 -27 33 -31 33 -10 0 10 10 14 30 14 28 -1 30 -4
30 -40 l0 -38 -90 0 -90 0 0 40 c0 23 5 47 12 54 17 18 57 7 75 -20z"/>
<path d="M2380 3560 c0 -11 5 -20 10 -20 6 0 10 -7 10 -15 0 -8 9 -15 20 -15
16 0 20 7 20 35 0 32 -2 35 -30 35 -23 0 -30 -4 -30 -20z"/>
<path d="M1677 3442 c-5 -6 -7 -49 -6 -95 l2 -82 -28 -3 c-15 -2 -31 2 -36 9
-9 15 -32 5 -79 -31 -20 -16 -22 -22 -11 -29 11 -7 11 -15 2 -41 -6 -18 -11
-35 -11 -36 0 -6 130 -4 203 3 l67 6 0 38 c0 30 -7 45 -31 69 -18 16 -38 30
-45 30 -10 0 -14 23 -16 88 -2 49 -7 82 -11 74z m-113 -224 c-5 -8 0 -9 14 -6
19 5 22 2 22 -28 0 -39 -6 -41 -38 -14 -19 16 -21 23 -12 40 6 11 13 20 16 20
3 0 2 -5 -2 -12z"/>
<path d="M1930 3420 c0 -5 3 -10 8 -10 4 0 13 -9 19 -19 10 -16 9 -18 -6 -14
-11 3 -21 -2 -24 -11 -5 -13 1 -16 28 -16 34 0 35 1 35 40 0 38 -2 40 -30 40
-16 0 -30 -4 -30 -10z"/>
<path d="M2662 3222 l-2 -193 -22 21 c-12 11 -25 20 -30 20 -4 0 -9 26 -9 58
l-2 57 -7 -60 c-4 -39 -3 -63 4 -70 6 -6 12 -16 14 -23 1 -7 13 -30 25 -50 22
-35 47 -95 47 -113 0 -5 -13 -9 -30 -9 -32 0 -80 -19 -80 -32 0 -4 -54 -8
-120 -8 -66 0 -120 4 -120 8 0 4 6 14 13 21 10 10 8 11 -7 5 -17 -7 -19 -4
-14 34 8 55 37 93 115 149 36 26 61 49 54 51 -12 4 -83 -41 -129 -82 -28 -25
-53 -70 -62 -111 -5 -25 -11 -31 -39 -33 -24 -3 -31 -7 -27 -19 3 -8 6 -23 6
-34 0 -18 42 -45 62 -41 4 1 3 -10 -2 -24 -18 -46 -12 -101 14 -129 13 -14 26
-38 30 -53 3 -15 12 -48 20 -74 l15 -47 -46 -45 c-25 -25 -51 -46 -57 -46 -15
0 -9 170 7 189 6 7 20 17 32 21 14 6 15 9 4 9 -8 1 -26 -10 -38 -23 -18 -20
-23 -39 -28 -116 -5 -79 -9 -93 -25 -98 -10 -2 -18 -8 -18 -12 0 -4 -10 -10
-22 -13 -13 -3 -33 -9 -45 -12 -20 -6 -23 -4 -23 18 0 23 -26 45 -38 32 -3 -3
0 -5 6 -5 7 0 12 -7 12 -15 0 -8 -4 -15 -10 -15 -5 0 -10 -5 -10 -11 0 -5 5
-7 10 -4 22 13 9 -15 -14 -30 -26 -17 -34 -35 -101 -210 -26 -66 -56 -136 -69
-155 -12 -19 -25 -42 -28 -51 -7 -17 -58 -33 -58 -18 0 5 -9 9 -20 9 -15 0
-20 -7 -20 -29 0 -29 14 -41 51 -41 13 0 19 7 19 23 l0 22 18 -21 c9 -11 30
-28 45 -38 15 -9 33 -28 39 -42 13 -29 28 -32 28 -5 0 11 8 21 18 23 11 3 1
12 -32 28 -53 27 -71 56 -50 78 8 7 14 24 14 37 0 13 6 30 13 37 7 7 30 67 50
133 57 181 57 181 133 215 36 17 69 30 74 30 11 0 -26 -148 -46 -183 -10 -18
-13 -38 -9 -57 7 -31 -19 -223 -36 -267 -5 -12 -14 -23 -21 -23 -13 0 -68
-123 -68 -153 0 -15 13 -17 105 -17 l104 0 3 133 3 132 175 5 175 6 -177 2
c-203 2 -198 4 -198 -87 l0 -51 -40 0 c-41 0 -55 18 -21 27 15 4 19 18 25 80
3 42 6 96 6 120 0 32 7 54 25 77 27 35 31 56 15 72 -6 6 -3 42 8 103 16 81 22
96 46 114 l29 21 -7 -47 c-7 -43 -4 -53 29 -107 47 -78 63 -86 117 -62 52 24
96 25 150 6 22 -8 46 -14 52 -14 6 0 31 25 55 56 l44 57 -11 76 c-10 65 -16
80 -42 102 -27 23 -30 31 -30 86 0 94 15 105 148 113 l107 7 -103 1 c-93 2
-103 4 -100 20 2 10 11 16 21 14 9 -2 17 2 17 8 0 5 -7 10 -16 10 -12 0 -15
11 -13 54 1 30 5 55 8 54 42 -4 39 15 -6 43 -20 13 -31 25 -25 27 16 5 15 27
-4 92 -11 38 -18 119 -23 265 l-7 210 -2 -193z m-164 -420 c86 -2 159 -6 161
-8 2 -2 -74 -4 -170 -4 -170 0 -222 8 -189 29 9 7 19 6 28 -1 8 -7 75 -13 170
-16z m-32 -47 c24 -5 34 -31 34 -87 0 -21 5 -38 10 -38 6 0 10 25 10 55 0 65
12 75 90 75 48 0 51 -2 56 -29 4 -20 11 -28 20 -24 19 7 19 -51 -1 -67 -20
-17 -45 -68 -45 -94 0 -33 -11 -43 -74 -71 -49 -22 -63 -24 -94 -15 -55 15
-80 39 -102 100 -22 59 -37 168 -26 195 6 16 43 16 122 0z m-139 -80 c-1 -19
-5 -35 -9 -35 -4 0 -8 16 -8 35 0 19 4 35 9 35 5 0 9 -16 8 -35z m113 -215
c49 -25 83 -25 139 0 24 11 45 20 47 20 9 0 2 -57 -9 -77 -17 -31 -76 -73
-103 -73 -35 0 -72 20 -91 49 -15 24 -36 101 -26 101 2 0 21 -9 43 -20z m-11
-100 c32 -34 55 -50 72 -50 30 0 95 33 132 68 34 32 44 24 55 -48 8 -50 6 -61
-20 -114 -32 -64 -32 -64 -120 -30 -47 18 -47 18 -96 -5 -28 -13 -55 -20 -61
-17 -6 4 -23 27 -37 52 -23 39 -26 52 -20 97 7 48 28 97 42 97 4 0 27 -22 53
-50z m-209 -705 c0 -25 -3 -45 -7 -45 -171 -6 -163 -7 -163 16 0 12 9 33 21
48 18 23 27 26 85 26 l64 0 0 -45z"/>
<path d="M1612 3370 c0 -14 2 -19 5 -12 2 6 2 18 0 25 -3 6 -5 1 -5 -13z"/>
<path d="M3242 3273 l3 -118 110 0 110 0 3 118 3 117 -116 0 -116 0 3 -117z
m156 -12 c-3 -65 -4 -68 -16 -44 -9 15 -10 28 -4 32 5 3 9 21 10 39 1 34 1 34
-43 30 -24 -1 -41 0 -38 5 2 4 24 7 49 7 l44 0 -2 -69z m-38 19 c0 -11 -7 -20
-15 -20 -17 0 -18 2 -9 24 9 23 24 20 24 -4z m-56 -15 c-4 -8 -8 -15 -10 -15
-2 0 -4 7 -4 15 0 8 4 15 10 15 5 0 7 -7 4 -15z m53 -41 c-3 -3 -12 -4 -19 -1
-8 3 -5 6 6 6 11 1 17 -2 13 -5z m-47 -24 c0 -5 -5 -10 -11 -10 -5 0 -7 5 -4
10 3 6 8 10 11 10 2 0 4 -4 4 -10z"/>
<path d="M2162 3225 c-2 -168 -11 -207 -47 -213 -16 -3 -18 -1 -7 9 7 7 12 38
12 71 0 32 4 58 10 58 6 0 10 5 10 10 0 6 -12 10 -26 10 -23 0 -26 -3 -24 -37
3 -51 -9 -83 -30 -83 -10 0 -20 9 -23 21 -4 15 -2 19 8 15 10 -3 12 0 8 11 -4
11 -2 14 5 9 7 -4 12 -1 12 8 0 9 -7 16 -15 16 -8 0 -15 -4 -15 -9 0 -5 -8
-11 -17 -13 -10 -2 -18 -12 -19 -23 0 -11 -1 -36 -2 -55 -2 -37 -17 -32 -25
10 -2 14 -3 8 -2 -13 2 -28 0 -37 -9 -34 -7 3 -19 1 -27 -4 -9 -5 21 -9 80 -9
86 0 97 2 127 25 38 29 65 68 39 59 -12 -5 -15 17 -18 158 l-3 163 -2 -160z
m-134 -210 c-3 -3 -9 2 -12 12 -6 14 -5 15 5 6 7 -7 10 -15 7 -18z"/>
<path d="M2123 3310 c0 -25 2 -35 4 -22 2 12 2 32 0 45 -2 12 -4 2 -4 -23z"/>
<path d="M2063 3232 c-19 -3 -23 -9 -21 -40 1 -36 1 -36 5 -5 3 22 9 30 18 27
7 -3 16 0 20 6 9 15 5 17 -22 12z"/>
<path d="M1935 3193 c-22 -19 -31 -30 -20 -24 27 14 69 51 64 55 -2 2 -22 -12
-44 -31z"/>
<path d="M2221 3186 c-12 -13 -24 -41 -27 -62 -4 -39 -4 -39 11 8 9 26 24 52
35 58 13 7 82 10 185 8 91 -2 165 0 165 5 0 4 -78 7 -173 7 -169 0 -174 -1
-196 -24z"/>
<path d="M2920 3180 c0 -5 6 -7 14 -4 19 7 33 -53 16 -69 -15 -15 -41 17 -34
41 5 14 4 14 -6 0 -7 -12 -25 -19 -53 -20 l-42 -1 43 -6 44 -6 -20 -23 c-16
-18 -29 -22 -59 -21 -21 2 -44 -1 -51 -5 -24 -14 -2 -24 44 -18 37 4 46 2 42
-9 -3 -8 -20 -17 -39 -20 -19 -4 -29 -7 -22 -8 6 0 14 -10 18 -20 4 -15 17
-20 57 -23 34 -2 52 1 55 10 3 6 18 12 34 12 47 0 66 66 34 120 -26 46 -28 51
-17 62 20 20 52 -20 52 -64 0 -28 4 -38 16 -38 13 0 15 7 11 36 -11 65 -31 84
-87 84 -28 0 -50 -4 -50 -10z"/>
<path d="M3145 3150 c-3 -5 -1 -10 6 -10 8 0 6 -6 -4 -18 -23 -25 -21 -30 8
-24 14 2 25 9 25 14 0 6 -7 8 -15 4 -13 -5 -13 -2 1 19 15 22 15 25 1 25 -9 0
-19 -4 -22 -10z"/>
<path d="M1893 3090 c0 -30 2 -43 4 -27 2 15 2 39 0 55 -2 15 -4 2 -4 -28z"/>
<path d="M1920 3085 c0 -16 6 -25 15 -25 9 0 15 9 15 25 0 16 -6 25 -15 25 -9
0 -15 -9 -15 -25z"/>
<path d="M1641 3020 c0 -51 -6 -91 -13 -98 -6 -6 -9 -15 -5 -18 4 -4 14 9 22
29 12 29 13 51 6 104 l-8 68 -2 -85z"/>
<path d="M2358 3093 c7 -3 16 -2 19 1 4 3 -2 6 -13 5 -11 0 -14 -3 -6 -6z"/>
<path d="M3385 2978 c4 -57 9 -105 10 -106 2 -2 22 -6 45 -9 50 -7 69 13 70
72 0 23 5 46 11 52 6 6 9 28 7 49 l-3 39 -73 3 -74 3 7 -103z m129 72 c5 -5 6
-16 3 -24 -5 -12 -21 -16 -67 -16 -57 0 -60 1 -60 24 0 19 6 26 28 29 33 5 84
-2 96 -13z m-14 -65 c0 -8 -4 -15 -10 -15 -5 0 -10 -7 -10 -15 0 -7 -8 -19
-17 -24 -17 -10 -17 -10 0 -11 9 0 17 -2 17 -4 0 -2 2 -11 5 -18 4 -11 -6 -15
-41 -17 -44 -2 -46 -1 -40 21 3 13 6 33 6 46 0 13 6 22 15 22 8 0 15 7 15 15
0 10 10 15 30 15 20 0 30 -5 30 -15z"/>
<path d="M3024 3015 c6 -32 4 -35 -26 -48 -18 -8 -39 -25 -46 -38 -11 -21 -18
-24 -59 -20 -31 2 -48 -1 -54 -10 -14 -22 -10 -56 6 -63 12 -4 14 0 9 18 -6
24 17 43 38 30 15 -9 40 -73 33 -84 -12 -20 -34 -9 -38 18 -4 25 -4 25 -6 -5
-1 -29 2 -33 25 -33 l25 0 -2 -96 c-2 -76 -6 -97 -18 -102 -20 -7 -55 -42 -43
-42 5 0 10 -47 11 -105 1 -58 -1 -105 -4 -105 -3 0 -19 7 -35 15 -27 14 -30
14 -30 1 0 -10 -6 -13 -15 -10 -9 4 -15 19 -15 40 0 24 -5 34 -15 34 -8 0 -15
5 -15 11 0 5 -4 7 -10 4 -5 -3 -10 -15 -10 -26 0 -10 5 -19 10 -19 6 0 10 -5
10 -12 0 -6 6 -19 14 -27 7 -9 21 -56 30 -106 9 -49 19 -98 22 -107 5 -16 -4
-18 -89 -18 -81 0 -96 -3 -103 -17 -4 -10 -10 -66 -13 -126 l-6 -107 25 0 25
0 -3 100 -3 100 70 0 71 0 0 -70 c0 -40 4 -70 10 -70 6 0 10 -11 10 -25 0 -16
-6 -25 -16 -25 -11 0 -14 -5 -10 -16 3 -9 7 -73 8 -142 1 -105 3 -115 7 -57 6
70 6 70 38 73 31 3 31 3 26 -37 -5 -34 -3 -39 13 -38 15 2 19 -5 19 -25 -1
-27 0 -28 57 -28 54 0 59 2 68 26 6 14 10 27 10 28 0 2 -20 9 -45 16 -29 8
-45 18 -45 29 0 9 -7 93 -15 186 -8 94 -15 176 -15 183 0 6 -10 22 -22 34 -16
16 -28 50 -40 108 -24 118 -26 113 35 89 80 -31 91 -42 106 -98 7 -28 17 -51
22 -51 4 0 6 -7 3 -15 -4 -8 -1 -15 7 -15 7 0 10 -3 6 -6 -3 -3 1 -25 10 -47
27 -75 63 -211 63 -242 1 -38 21 -65 49 -65 28 0 27 15 -8 113 -15 45 -26 88
-24 95 3 6 0 12 -6 12 -6 0 -11 11 -11 25 0 14 -7 36 -15 49 -8 13 -27 63 -41
112 -15 49 -34 97 -42 107 -16 17 -15 18 11 12 24 -6 27 -4 27 18 0 14 -4 29
-10 32 -5 3 -10 -1 -10 -10 0 -9 -4 -14 -10 -10 -5 3 -7 12 -3 20 3 8 0 15 -5
15 -6 0 -12 19 -14 42 -2 33 -8 44 -22 46 -26 5 -36 -15 -36 -70 0 -41 -3 -48
-20 -48 -19 0 -20 7 -20 119 0 93 3 120 14 124 20 8 27 -3 15 -24 -6 -13 -6
-25 1 -39 13 -24 33 -26 50 -5 15 18 5 49 -13 42 -9 -3 -13 25 -15 119 l-3
124 25 0 c25 0 26 2 26 60 0 66 16 82 23 23 3 -29 4 -25 5 18 2 42 7 60 22 74
11 10 20 26 20 35 0 18 36 30 91 30 26 0 29 -3 29 -31 0 -24 -3 -29 -12 -21
-17 13 -58 -3 -58 -23 0 -22 17 -18 31 7 11 21 12 21 25 3 8 -10 14 -29 14
-42 0 -20 2 -22 14 -11 9 8 11 17 5 23 -5 5 -9 32 -9 60 l0 50 -65 -3 c-42 -3
-65 0 -65 7 0 6 -10 11 -21 11 -19 0 -20 -4 -15 -35z m-44 -180 c0 -27 -4 -35
-17 -35 -14 0 -18 10 -20 45 -2 42 -1 44 17 35 14 -8 20 -21 20 -45z m-20
-319 c0 -3 -4 -8 -10 -11 -5 -3 -10 -1 -10 4 0 6 5 11 10 11 6 0 10 -2 10 -4z
m-86 -452 c3 -8 2 -12 -4 -9 -6 3 -10 10 -10 16 0 14 7 11 14 -7z"/>
<path d="M1470 3000 c0 -5 -10 -10 -22 -10 -14 0 -19 -3 -12 -10 5 -5 8 -29 6
-54 -3 -34 -9 -46 -25 -52 -18 -6 -16 -8 16 -11 20 -2 37 -8 37 -12 0 -5 9
-11 20 -14 23 -6 27 -32 5 -41 -8 -3 -15 -12 -15 -21 0 -11 -10 -15 -35 -15
-24 0 -35 5 -35 15 0 10 10 15 33 15 l32 0 -29 15 c-38 20 -52 14 -58 -24 l-5
-31 116 1 c64 1 104 4 89 6 -16 2 -28 10 -28 16 0 8 -3 7 -9 -2 -6 -9 -10 3
-12 38 -2 28 -1 51 4 51 10 0 9 41 -4 100 -10 46 -13 50 -40 50 -16 0 -29 -4
-29 -10z m33 -124 c6 -15 -1 -26 -15 -26 -4 0 -8 9 -8 20 0 23 15 27 23 6z"/>
<path d="M2430 2945 c0 -37 4 -65 10 -65 6 0 10 27 10 61 l0 61 74 -3 c41 -2
78 0 82 4 4 4 -34 7 -84 7 l-92 0 0 -65z"/>
<path d="M3238 2915 c-7 -191 -3 -325 10 -325 9 0 12 32 12 128 0 70 3 150 6
177 4 37 2 55 -10 70 -14 19 -16 15 -18 -50z"/>
<path d="M2570 2920 c0 -27 5 -50 10 -50 6 0 10 23 10 50 0 28 -4 50 -10 50
-5 0 -10 -22 -10 -50z"/>
<path d="M1868 2924 c-4 -4 -5 -17 -2 -29 3 -13 1 -26 -5 -29 -7 -5 -11 4 -11
23 0 39 -13 39 -40 1 -14 -20 -30 -30 -48 -31 -27 0 -27 0 -4 -10 13 -5 21
-12 19 -16 -3 -5 19 -6 48 -5 44 3 53 7 48 19 -4 11 -2 14 8 11 9 -3 14 -20
14 -46 0 -49 15 -69 16 -21 1 19 1 40 0 47 -1 6 7 12 18 12 14 0 18 -5 14 -20
-3 -11 -9 -17 -14 -14 -18 11 -8 -22 11 -39 27 -22 27 -22 22 18 -3 27 -1 35
12 35 11 0 16 9 16 30 0 27 3 30 32 30 28 0 30 2 18 14 -16 16 -160 33 -172
20z m79 -36 c21 -8 33 -19 33 -30 0 -21 -3 -22 -28 -9 -9 5 -25 12 -34 15 -10
3 -18 12 -18 21 0 18 4 18 47 3z"/>
<path d="M2082 2900 c0 -14 2 -19 5 -12 2 6 2 18 0 25 -3 6 -5 1 -5 -13z"/>
<path d="M3065 2890 c3 -5 19 -10 36 -10 16 0 29 5 29 10 0 6 -16 10 -36 10
-21 0 -33 -4 -29 -10z"/>
<path d="M3171 2853 c-1 -13 -7 -23 -16 -23 -8 0 -15 -5 -15 -11 0 -5 5 -7 10
-4 6 3 10 1 10 -4 0 -6 -6 -11 -12 -12 -33 -2 -51 -9 -62 -25 -8 -11 -18 -14
-26 -9 -10 6 -11 3 -5 -16 12 -37 18 -107 11 -133 -3 -14 -17 -29 -33 -34 -16
-6 -21 -11 -12 -11 9 -1 27 8 40 18 22 18 24 26 22 96 l-2 76 42 -3 42 -3 1
-70 c2 -90 2 -95 12 -95 4 0 6 37 4 81 -3 60 0 84 10 90 10 7 10 9 1 9 -8 0
-13 13 -13 30 0 17 5 30 13 30 8 0 9 3 1 8 -6 4 -14 14 -17 22 -4 10 -6 8 -6
-7z"/>
<path d="M2201 2844 c0 -11 3 -14 6 -6 3 7 2 16 -1 19 -3 4 -6 -2 -5 -13z"/>
<path d="M2448 2853 c6 -2 18 -2 25 0 6 3 1 5 -13 5 -14 0 -19 -2 -12 -5z"/>
<path d="M1557 2833 c-11 -10 -8 -43 4 -43 5 0 7 5 4 10 -4 6 8 10 28 10 22 0
37 6 41 15 4 12 -3 15 -33 15 -21 0 -41 -3 -44 -7z"/>
<path d="M2030 2754 c0 -58 3 -83 11 -79 6 4 10 32 9 64 -2 81 -2 81 23 91 20
8 19 9 -10 9 l-33 1 0 -86z"/>
<path d="M1771 2794 c0 -11 3 -14 6 -6 3 7 2 16 -1 19 -3 4 -6 -2 -5 -13z"/>
<path d="M1838 2768 c9 -9 15 -9 24 0 9 9 7 12 -12 12 -19 0 -21 -3 -12 -12z"/>
<path d="M1795 2750 c-3 -5 -2 -10 4 -10 5 0 13 5 16 10 3 6 2 10 -4 10 -5 0
-13 -4 -16 -10z"/>
<path d="M2840 2740 c0 -5 10 -10 23 -10 18 0 19 2 7 10 -19 13 -30 13 -30 0z"/>
<path d="M1876 2700 c-6 -38 -8 -40 -40 -40 -19 0 -37 6 -39 13 -3 7 -6 5 -6
-5 -1 -15 8 -18 49 -18 l50 0 0 45 c0 56 -5 58 -14 5z"/>
<path d="M3323 2730 c-23 -9 -32 -30 -13 -30 6 0 10 4 10 9 0 13 55 24 79 16
22 -7 18 -40 -6 -49 -10 -4 -13 -2 -10 7 4 10 -2 13 -19 9 -13 -2 -24 -8 -24
-13 0 -5 -7 -6 -15 -3 -13 5 -14 -3 -9 -57 4 -35 11 -72 15 -81 17 -32 11 -58
-13 -58 -21 0 -21 0 -2 -15 38 -29 44 -20 44 69 l0 83 41 7 c22 4 44 4 50 1 5
-4 9 -44 9 -91 0 -49 4 -84 10 -84 6 0 10 51 10 133 l0 133 -45 12 c-52 14
-81 14 -112 2z"/>
<path d="M3567 2733 c-4 -3 -7 -38 -7 -76 0 -55 -4 -73 -17 -83 -16 -12 -10
-13 45 -14 34 0 62 -3 62 -6 0 -3 -9 -18 -21 -32 -28 -36 -7 -40 33 -7 32 27
32 29 30 99 -4 91 -7 101 -38 114 -27 13 -77 16 -87 5z m68 -23 c4 -6 1 -17
-5 -25 -10 -12 -9 -15 8 -15 29 0 46 -24 33 -49 -8 -14 -8 -21 2 -25 6 -3 -6
-5 -28 -4 -22 1 -46 -2 -53 -6 -22 -13 -25 0 -17 69 6 60 9 65 30 65 13 0 27
-5 30 -10z"/>
<path d="M2860 2701 c0 -6 4 -13 10 -16 6 -3 7 1 4 9 -7 18 -14 21 -14 7z"/>
<path d="M2826 2666 c7 -18 29 -21 39 -6 3 6 2 10 -4 10 -5 0 -17 3 -25 6 -12
5 -15 2 -10 -10z"/>
<path d="M1540 2645 c0 -8 4 -15 10 -15 5 0 7 7 4 15 -4 8 -8 15 -10 15 -2 0
-4 -7 -4 -15z"/>
<path d="M2060 2650 l-25 -8 28 -1 c15 -1 27 4 27 9 0 6 -1 10 -2 9 -2 -1 -14
-5 -28 -9z"/>
<path d="M2970 2620 c0 -5 5 -10 10 -10 6 0 10 5 10 10 0 6 -4 10 -10 10 -5 0
-10 -4 -10 -10z"/>
<path d="M3252 2538 c-1 -20 -5 -43 -8 -52 -4 -11 -1 -16 10 -16 15 0 22 -31
18 -82 -1 -10 3 -18 8 -18 16 0 12 98 -4 107 -8 4 -16 28 -19 53 -3 41 -4 42
-5 8z"/>
<path d="M1785 2520 c6 -30 6 -30 -34 -30 -23 0 -41 -4 -41 -9 0 -5 -15 -14
-34 -21 -18 -6 -44 -22 -57 -37 l-24 -27 30 21 c69 47 164 55 235 20 39 -20
43 -21 34 -6 -3 6 -21 17 -38 24 -25 11 -35 24 -45 54 -14 48 -36 57 -26 11z"/>
<path d="M2070 2520 c0 -5 15 -10 34 -10 36 0 55 -14 35 -25 -6 -4 -8 -17 -5
-30 4 -17 1 -24 -14 -28 -25 -6 -33 3 -17 21 11 13 9 14 -10 1 -26 -16 -30
-29 -8 -29 8 0 15 -5 15 -11 0 -7 16 -8 45 -3 41 6 45 5 45 -15 0 -11 5 -21
10 -21 6 0 10 29 10 68 0 64 -2 70 -25 80 -32 15 -115 16 -115 2z"/>
<path d="M3400 2505 c0 -18 5 -25 20 -25 15 0 20 7 20 25 0 18 -5 25 -20 25
-15 0 -20 -7 -20 -25z"/>
<path d="M3090 2461 c-5 -11 -10 -60 -10 -109 l0 -90 62 3 c35 2 64 8 66 13 1
4 -25 6 -58 4 l-60 -4 0 81 0 81 43 1 c23 1 45 1 50 0 4 0 7 8 7 19 0 17 -7
20 -45 20 -34 0 -47 -5 -55 -19z"/>
<path d="M3200 2415 l0 -55 -35 0 c-24 0 -35 -5 -35 -15 0 -11 11 -15 40 -15
l40 0 0 70 c0 39 -2 70 -5 70 -3 0 -5 -25 -5 -55z"/>
<path d="M2031 2403 c0 -28 2 -54 7 -57 4 -2 6 14 4 37 -5 68 -10 76 -11 20z"/>
<path d="M1804 2427 c16 -12 16 -14 2 -26 -25 -21 -19 -29 22 -34 20 -2 0 -4
-45 -5 -46 -1 -83 2 -83 6 0 9 -44 32 -59 32 -5 0 -12 -11 -15 -24 -3 -13 -9
-31 -12 -40 -8 -20 30 -22 88 -4 33 10 41 9 50 -3 7 -11 11 -11 15 -1 15 38
23 -5 26 -145 l3 -158 2 158 2 157 55 0 c30 0 55 5 55 10 0 6 -5 10 -11 10 -5
0 -8 4 -5 9 6 9 -79 71 -98 71 -5 0 -2 -6 8 -13z"/>
<path d="M3443 2335 c0 -8 4 -15 9 -15 4 0 8 7 8 15 0 8 -4 15 -8 15 -5 0 -9
-7 -9 -15z"/>
<path d="M3220 2273 c0 -5 18 -8 40 -8 22 0 40 3 40 8 0 4 -18 7 -40 7 -22 0
-40 -3 -40 -7z"/>
<path d="M3222 2028 c-1 -140 -6 -229 -12 -233 -6 -4 -8 -10 -5 -15 3 -5 -3
-14 -12 -20 -13 -8 12 -10 100 -8 116 3 119 4 143 31 13 15 24 38 24 50 -1 18
-3 16 -15 -10 -18 -42 -37 -51 -133 -59 l-82 -6 -3 248 -2 249 -3 -227z"/>
<path d="M3380 2230 c0 -5 7 -10 16 -10 8 0 12 5 9 10 -3 6 -10 10 -16 10 -5
0 -9 -4 -9 -10z"/>
<path d="M1557 2210 c8 -29 -5 -87 -24 -105 -11 -11 -25 -14 -45 -10 -45 10
-98 -19 -98 -53 0 -15 7 -38 16 -50 14 -21 23 -22 134 -22 l118 0 26 31 c14
17 26 41 26 54 0 23 -29 43 -39 27 -8 -12 -57 -21 -70 -12 -6 3 -14 21 -17 39
-6 29 -4 33 12 29 10 -2 21 -14 25 -28 4 -16 7 -19 8 -7 1 9 8 17 16 17 20 0
35 32 35 74 l0 36 -64 0 c-59 0 -64 -2 -59 -20z m89 -197 c-32 -17 -56 -11
-56 12 0 9 5 13 10 10 6 -3 10 -2 10 4 0 6 11 6 31 -1 l32 -11 -27 -14z"/>
<path d="M3430 2202 c0 -4 5 -13 12 -20 9 -9 5 -12 -20 -12 -22 0 -32 5 -32
15 0 25 -15 17 -59 -30 l-42 -45 3 -98 3 -97 80 -5 c44 -3 95 -3 113 -1 l32 3
0 104 c0 94 -2 105 -21 116 -11 7 -27 28 -36 46 -14 29 -33 43 -33 24z m53
-79 c16 -19 6 -37 -23 -39 -8 -1 -19 -3 -25 -4 -5 -1 -25 -2 -43 -1 -39 1 -34
21 6 22 15 0 21 3 15 6 -22 8 -14 21 15 26 15 2 30 5 33 6 3 0 13 -7 22 -16z
m-126 -69 c-3 -3 -12 -4 -19 -1 -8 3 -5 6 6 6 11 1 17 -2 13 -5z m61 -91 c-2
-26 -8 -38 -18 -38 -10 0 -16 12 -18 38 -3 32 0 37 18 37 18 0 21 -5 18 -37z"/>
<path d="M1922 2170 c0 -14 2 -19 5 -12 2 6 2 18 0 25 -3 6 -5 1 -5 -13z"/>
<path d="M1593 1909 c-13 -15 -23 -34 -23 -43 0 -8 -8 -20 -17 -25 -17 -10
-17 -10 0 -11 9 0 17 -7 17 -15 0 -22 11 -19 53 16 39 32 47 53 22 63 -9 3
-19 14 -23 24 -6 17 -9 16 -29 -9z m9 -51 c-15 -15 -24 -6 -16 16 5 12 10 14
17 7 8 -8 8 -14 -1 -23z m19 -11 l-23 -22 17 28 c10 15 20 25 23 22 3 -3 -5
-16 -17 -28z"/>
<path d="M3098 1695 c-6 -49 -4 -64 8 -53 3 3 4 28 2 54 l-3 49 -7 -50z"/>
<path d="M3223 1655 c0 -38 2 -53 4 -32 2 20 2 52 0 70 -2 17 -4 1 -4 -38z"/>
<path d="M1663 1540 c-12 -5 -25 -21 -29 -35 -8 -31 20 -66 67 -86 44 -17 30
-34 -25 -31 -54 2 -59 -14 -11 -37 22 -11 36 -11 66 -2 69 21 68 70 -2 106
-18 10 -29 23 -29 37 0 17 4 20 30 15 22 -5 30 -3 30 8 0 29 -53 43 -97 25z"/>
<path d="M2062 1517 c-40 -41 -85 -43 -132 -4 -61 52 -80 32 -80 -85 0 -81 2
-88 20 -88 18 0 20 7 20 60 0 63 4 68 33 46 12 -9 17 -27 17 -60 0 -42 2 -46
25 -46 22 0 25 4 25 39 0 28 5 40 18 44 9 4 27 14 40 23 l22 16 0 -61 c0 -58
1 -61 25 -61 25 0 25 1 25 89 0 88 -5 121 -19 121 -4 0 -21 -15 -39 -33z"/>
<path d="M2360 1445 c0 -105 0 -105 24 -105 22 0 25 5 28 43 l3 42 24 -42 c15
-26 32 -43 43 -43 23 0 23 7 -2 48 -19 30 -19 35 -5 55 38 54 3 107 -70 107
l-45 0 0 -105z m75 40 c0 -10 -6 -20 -12 -22 -8 -3 -13 5 -13 22 0 17 5 25 13
23 6 -3 12 -13 12 -23z"/>
<path d="M2520 1530 c0 -13 7 -20 20 -20 18 0 20 -7 20 -85 0 -78 2 -85 20
-85 18 0 20 7 20 85 0 83 1 85 24 85 23 0 41 22 29 34 -4 3 -35 6 -70 6 -56 0
-63 -2 -63 -20z"/>
<path d="M3289 1540 c-38 -22 -32 -77 14 -127 22 -25 17 -37 -15 -38 -12 0
-23 -5 -25 -12 -6 -17 44 -28 76 -17 38 14 39 48 1 90 -36 42 -36 69 0 69 33
0 39 30 8 39 -31 8 -40 7 -59 -4z"/>
<path d="M2792 1527 c-14 -16 -6 -27 20 -27 14 0 18 -8 18 -41 0 -60 -14 -80
-51 -72 -28 5 -30 4 -27 -18 4 -29 36 -36 79 -19 35 15 52 63 47 135 -3 49 -3
50 -39 53 -22 2 -40 -2 -47 -11z"/>
<path d="M3110 1440 l0 -100 29 0 c77 0 125 42 97 85 -10 15 -12 26 -6 30 18
11 10 43 -16 64 -17 13 -41 21 -65 21 l-39 0 0 -100z m78 43 c-5 -26 -38 -29
-38 -4 0 15 6 21 21 21 14 0 19 -5 17 -17z m5 -77 c6 -16 -11 -36 -30 -36 -7
0 -13 11 -13 25 0 18 5 25 19 25 10 0 21 -6 24 -14z"/>
<path d="M2236 1503 c-14 -15 -42 -58 -62 -95 l-35 -68 35 0 c25 0 38 6 46 20
6 12 21 20 35 20 14 0 29 -8 35 -20 6 -11 20 -20 31 -20 23 0 23 4 -9 123 -20
72 -38 81 -76 40z m34 -84 c0 -5 -7 -9 -15 -9 -15 0 -20 12 -9 23 8 8 24 -1
24 -14z"/>
<path d="M2939 1501 c-35 -36 -40 -95 -10 -132 45 -56 141 -11 141 66 0 47 -8
64 -41 80 -40 21 -57 19 -90 -14z m79 -64 c6 -52 -39 -78 -59 -33 -15 32 4 68
34 64 16 -2 23 -11 25 -31z"/>
</g>
</svg>
